<svg width="89" height="34" viewBox="0 0 89 34" fill="none" xmlns="http://www.w3.org/2000/svg">
<circle cx="5" cy="5" r="5" fill="#333333"/>
<path d="M23.14 23.8H21.98L21.1 27.18C20.44 27.44 19.82 27.56 19.14 27.56C16.14 27.56 13.94 25.32 13.94 20.6C13.94 15.92 16.18 13.62 19.14 13.62C19.78 13.62 20.36 13.72 20.94 13.96L21.82 17.38H22.96L23 13.92C21.66 13.16 20.36 12.8 18.78 12.8C14.5 12.8 10.96 15.58 10.96 20.58C10.96 25.56 14.26 28.38 18.7 28.38C20.44 28.38 21.88 27.96 23.16 27.24L23.14 23.8ZM31.0834 25.96C30.1634 26.72 29.6634 27.02 29.0034 27.02C28.0434 27.02 27.4034 26.46 27.4034 25.28C27.4034 24.04 28.0034 23.12 29.5834 22.5C29.9234 22.36 30.4834 22.2 31.0834 22.02V25.96ZM35.2634 26.62C34.9034 27.1 34.6634 27.28 34.3634 27.28C33.9234 27.28 33.6434 26.98 33.6434 26.08V20.92C33.6434 18.12 32.5434 16.98 29.9234 16.98C27.1434 16.98 25.4834 18.1 25.2234 19.9C25.3434 20.5 25.7634 20.82 26.4234 20.82C27.1034 20.82 27.6434 20.38 27.7234 19.28L28.0034 17.84C28.3634 17.76 28.7034 17.72 29.0434 17.72C30.5434 17.72 31.0834 18.3 31.0834 20.42V21.44C30.3034 21.62 29.5034 21.84 28.9034 22.04C25.8234 23 24.9034 23.98 24.9034 25.64C24.9034 27.32 26.1234 28.32 27.8034 28.32C29.2834 28.32 30.0634 27.7 31.1634 26.54C31.4234 27.62 32.1234 28.3 33.3434 28.3C34.4034 28.3 35.1034 27.92 35.6234 26.92L35.2634 26.62ZM40.1934 19.14C41.0334 18.38 41.6934 18.22 42.3334 18.22C43.9934 18.22 45.0134 19.48 45.0134 22.64C45.0134 25.9 43.8334 27.04 42.1934 27.04C41.4334 27.04 40.8134 26.86 40.1934 26.3V19.14ZM39.9734 17.2L39.6934 17L35.8934 18.22V18.72L37.5134 18.88C37.5534 19.84 37.5734 20.58 37.5734 21.88V28.32C37.5734 29.54 37.5534 30.98 37.5334 32.42L36.0134 32.6V33.2H41.9134V32.6L40.1934 32.4C40.1734 30.96 40.1534 29.52 40.1534 28.32V26.94C41.0334 27.96 42.0534 28.32 43.0934 28.32C45.7334 28.32 47.8334 26.12 47.8334 22.58C47.8334 19.04 45.9334 16.98 43.5134 16.98C42.2734 16.98 41.0734 17.44 40.1134 18.52L39.9734 17.2ZM55.9142 26.52C55.3742 26.92 55.0142 27.12 54.4942 27.12C53.6942 27.12 53.1942 26.66 53.1942 25.54V18.14H55.8542V17.3H53.2142L53.2742 14.14H51.5542L50.6942 17.28L48.8342 17.48V18.14H50.5542V23.38C50.5542 24.18 50.5342 24.74 50.5342 25.38C50.5342 27.42 51.5542 28.32 53.3942 28.32C54.7542 28.32 55.6942 27.8 56.2742 26.9L55.9142 26.52ZM63.3491 25.96C62.4291 26.72 61.9291 27.02 61.2691 27.02C60.3091 27.02 59.6691 26.46 59.6691 25.28C59.6691 24.04 60.2691 23.12 61.8491 22.5C62.1891 22.36 62.7491 22.2 63.3491 22.02V25.96ZM67.5291 26.62C67.1691 27.1 66.9291 27.28 66.6291 27.28C66.1891 27.28 65.9091 26.98 65.9091 26.08V20.92C65.9091 18.12 64.8091 16.98 62.1891 16.98C59.4091 16.98 57.7491 18.1 57.4891 19.9C57.6091 20.5 58.0291 20.82 58.6891 20.82C59.3691 20.82 59.9091 20.38 59.9891 19.28L60.2691 17.84C60.6291 17.76 60.9691 17.72 61.3091 17.72C62.8091 17.72 63.3491 18.3 63.3491 20.42V21.44C62.5691 21.62 61.7691 21.84 61.1691 22.04C58.0891 23 57.1691 23.98 57.1691 25.64C57.1691 27.32 58.3891 28.32 60.0691 28.32C61.5491 28.32 62.3291 27.7 63.4291 26.54C63.6891 27.62 64.3891 28.3 65.6091 28.3C66.6691 28.3 67.3691 27.92 67.8891 26.92L67.5291 26.62ZM71.4497 14.76C72.3097 14.76 73.0297 14.14 73.0297 13.28C73.0297 12.38 72.3097 11.78 71.4497 11.78C70.5897 11.78 69.8697 12.38 69.8697 13.28C69.8697 14.14 70.5897 14.76 71.4497 14.76ZM72.8697 27.22C72.8497 26.08 72.8297 24.4 72.8297 23.3V20.3L72.8697 17.18L72.5897 17L68.5297 18.14V18.68L70.1497 18.84C70.1897 19.84 70.2097 20.6 70.2097 21.88V23.3C70.2097 24.4 70.1897 26.06 70.1697 27.2L68.7097 27.38V28H74.2097V27.38L72.8697 27.22ZM86.5838 27.22C86.5638 26.08 86.5438 24.44 86.5438 23.3V20.86C86.5438 18.18 85.3638 16.98 83.4838 16.98C82.1838 16.98 80.9438 17.54 79.6838 19L79.5438 17.18L79.2638 17L75.4238 18.22V18.72L77.0038 18.88C77.0638 19.84 77.0838 20.56 77.0838 21.86V23.3C77.0838 24.4 77.0638 26.06 77.0438 27.2L75.5838 27.38V28H81.0638V27.38L79.7638 27.22C79.7438 26.08 79.7238 24.4 79.7238 23.3V19.7C80.7038 18.8 81.6038 18.4 82.3438 18.4C83.4238 18.4 83.9238 19 83.9238 20.74V23.3C83.9238 24.44 83.9038 26.08 83.8638 27.2L82.4638 27.38V28H87.9438V27.38L86.5838 27.22Z" fill="#333333"/>
</svg>
